<?xml version="1.0" encoding="UTF-8"?> <svg xmlns="http://www.w3.org/2000/svg" width="224" height="67" viewBox="0 0 224 67" fill="none"><g clip-path="url(#clip0_4580_888)"><path fill-rule="evenodd" clip-rule="evenodd" d="M67.1999 25.5L46.8999 40.6L55.5999 67L33.5999 50.6L11.5999 67L19.6999 42.3H25.1999V50.6H33.5999V42.3H25.1999V33.9001H16.7999V25.5H25.1999V33.9001H33.5999V25.5H25.1999L33.5999 -0.199951L41.9999 25.5H67.1999ZM16.6999 40.3H10.2999V33.9001H16.6999V40.3ZM-0.100098 25.5H5.8999V31.4H-0.100098V25.5ZM136.9 25.6H144.7L128.5 67.1L116.3 39.2001L104.2 67.1L87.9999 25.6H95.7999L105.2 51.9001L116.3 23.6L127.7 51.9001L136.9 25.6ZM181.1 35C182.767 37.9334 183.6 41.4001 183.6 45.4001C183.6 49.3334 182.767 52.8 181.1 55.8C179.367 58.7334 176.967 61 173.9 62.6C170.9 64.2667 167.367 65.1 163.3 65.1H150.6V25.6H163.3C167.367 25.6 170.9 26.4334 173.9 28.1C176.967 29.7 179.367 32 181.1 35ZM176.8 45.4001C176.8 43.1334 176.467 41.1667 175.8 39.5C175.067 37.8334 174.1 36.4334 172.9 35.3C171.7 34.1667 170.267 33.3001 168.6 32.7001C166.933 32.1667 165.133 31.9 163.2 31.9H157.4V58.8H163.2C165.133 58.8 166.933 58.5001 168.6 57.9001C170.267 57.3667 171.7 56.5334 172.9 55.4001C174.1 54.3334 175.067 52.9334 175.8 51.2001C176.467 49.5334 176.8 47.6001 176.8 45.4001ZM211.8 54.9001H197.3L192.8 65.1H185.3L204.6 23.4L223.9 65.1H216.4L211.8 54.9001ZM204.5 36.7001L199.2 49.2001H209.9L204.5 36.7001Z" fill="#FEFEFE"></path></g><defs><clipPath id="clip0_4580_888"><rect width="224" height="67" fill="white"></rect></clipPath></defs></svg> 