<?xml version="1.0" encoding="UTF-8"?> <svg xmlns="http://www.w3.org/2000/svg" width="172" height="48" viewBox="0 0 172 48" fill="none"> <g clip-path="url(#clip0_668_2318)"> <path fill-rule="evenodd" clip-rule="evenodd" d="M169.233 25.9753C169.596 25.5552 170.239 25.5744 170.569 26.0225H170.567L171.823 27.7289C172.061 28.0567 172.06 28.5091 171.811 28.8284C169.63 31.6387 165.808 34.3438 161.197 34.6055C157.557 34.8111 154.555 33.4414 152.921 30.8519C152.598 30.3397 151.884 30.3097 151.521 30.7941C149.583 33.3792 147.237 35.4007 144.793 35.5399C140.44 35.7865 139.21 32.8863 140.286 26.4919C140.395 25.8553 139.833 25.3173 139.227 25.4759C138.325 25.7138 137.367 25.8188 136.394 25.7353C135.99 25.7009 135.611 25.9454 135.488 26.3439C133.877 31.6001 130.043 36.4896 125.081 36.7726C121.913 36.9527 117.18 35.1498 117.654 27.6172C117.693 27.0042 117.139 26.5219 116.569 26.6934C115.576 26.9935 114.506 27.135 113.417 27.0428C113.013 27.0085 112.635 27.2528 112.513 27.6517C110.902 32.9077 107.068 37.7973 102.106 38.0801C98.9377 38.2602 94.2052 36.4575 94.6786 28.925C94.7179 28.3117 94.1643 27.8294 93.5942 28.0011C92.6007 28.3012 91.531 28.4448 90.4417 28.3503C90.0379 28.3162 89.6603 28.5606 89.5383 28.9591C87.9264 34.2154 84.0932 39.1049 79.1308 39.3878C76.8769 39.5164 73.8288 38.6396 72.429 35.4113C72.1594 34.7877 71.3508 34.6933 70.9506 35.2357C68.9912 37.8916 66.6044 39.9881 64.1119 40.1295C61.5572 40.2752 60.1598 39.2571 59.5522 37.4413C59.3366 36.8005 58.5299 36.6482 58.0945 37.1562C56.3506 39.1927 54.3642 40.6846 52.3548 40.7983C49.2569 40.9762 47.4736 38.6953 47.3265 35.9322C47.1564 32.7083 48.5603 28.9334 50.1278 24.8135C50.3455 24.2411 49.9515 23.6215 49.3565 23.5958C48.4524 23.5574 47.4198 23.463 46.4493 23.2828C46.0117 23.1994 45.5868 23.4695 45.4623 23.9111C43.6086 30.4854 40.7698 36.9291 38.3748 40.7382C38.1073 41.1648 37.5537 41.2785 37.1514 40.9847L35.3226 39.6473C34.9473 39.3706 34.8456 38.8391 35.0965 38.4382C38.5574 32.9313 41.6304 24.3097 42.69 17.9326C42.7563 17.5253 43.0901 17.223 43.4903 17.1995L45.9226 17.0601C46.4804 17.028 46.92 17.5446 46.8184 18.1126L46.808 18.1726C46.7168 18.6785 47.0569 19.1544 47.5483 19.2209C49.7296 19.5189 52.9893 19.5552 55.2018 19.4695C55.8238 19.4459 56.2635 20.0847 56.0374 20.6828C54.2625 25.373 51.8841 31.8724 52.0209 34.4446C52.0832 35.6064 52.5996 36.241 53.5076 36.1895C55.2454 36.091 57.9182 32.6204 59.9441 28.7557C59.9814 28.6869 60.0083 28.6121 60.0249 28.5349C60.7075 25.5086 61.7206 22.1343 62.744 18.7251L62.8076 18.5134C62.9133 18.1577 63.2224 17.909 63.5832 17.8876L66.4965 17.7225C67.0979 17.6882 67.5478 18.2884 67.3654 18.8821C67.2155 19.3718 67.0661 19.8582 66.9181 20.3401C64.3545 28.6863 62.2016 35.6956 65.101 35.5315C66.9963 35.4242 69.6816 32.2303 71.9915 27.6837C72.0288 27.6086 72.0558 27.5293 72.0724 27.4458C72.1886 26.8519 72.3294 26.2305 72.5017 25.5809C73.8485 20.2375 75.3758 14.9444 76.9049 9.64474C77.3768 8.00916 77.8489 6.37294 78.3159 4.73447C78.4196 4.37221 78.7305 4.11711 79.0954 4.09567L82.0858 3.92633C82.6935 3.89203 83.1432 4.49867 82.9523 5.09674C81.758 8.81801 80.5097 12.7815 79.3237 16.5971C79.0748 17.401 79.9415 18.0697 80.6259 17.6067C81.8057 16.805 83.1702 16.2734 84.4913 16.1984C87.8568 16.0076 90.1477 18.7578 90.3672 22.9014C90.3794 23.1201 90.3925 23.3558 90.3983 23.5958C90.4106 24.0548 90.757 24.4255 91.1993 24.4641C92.7833 24.6034 94.4026 24.1361 95.6533 23.0279C95.7819 22.9142 95.8687 22.7599 95.9121 22.5926C97.1521 17.8101 98.5208 13.0632 99.8902 8.31026C100.36 6.68302 100.829 5.05507 101.293 3.42473C101.396 3.06246 101.708 2.80737 102.073 2.78594L105.063 2.61659C105.67 2.5823 106.121 3.18892 105.93 3.78699C104.735 7.50827 103.487 11.4718 102.301 15.2873C102.052 16.0912 102.919 16.76 103.603 16.297C104.783 15.4953 106.148 14.9637 107.468 14.8886C110.834 14.6979 113.124 17.4481 113.345 21.5918C113.357 21.8102 113.369 22.0462 113.376 22.2862C113.386 22.7449 113.735 23.1158 114.176 23.1545C115.76 23.2937 117.379 22.8263 118.63 21.718C118.759 21.6046 118.845 21.4502 118.89 21.283C120.13 16.5004 121.498 11.7536 122.868 7.00076C123.337 5.37343 123.806 3.7454 124.27 2.11499C124.374 1.75272 124.685 1.49764 125.05 1.4762L128.04 1.30686C128.648 1.27256 129.097 1.8792 128.907 2.47726C127.712 6.19852 126.464 10.162 125.278 13.9776C125.029 14.7815 125.896 15.4503 126.581 14.9873C127.76 14.1855 129.124 13.654 130.446 13.579C133.811 13.3882 136.102 16.1383 136.322 20.2819C136.335 20.5028 136.347 20.7364 136.353 20.9764C136.366 21.433 136.71 21.806 137.151 21.8446C138.684 21.9796 140.251 21.5466 141.483 20.5156C141.62 20.402 141.715 20.2412 141.761 20.0654C143.173 14.6593 145.247 7.57687 147.246 0.798829C147.352 0.440849 147.662 0.192192 148.023 0.170756L150.986 0.00141291C151.588 -0.0328846 152.037 0.563034 151.857 1.15681C149.105 10.2328 146.862 18.1726 145.624 22.8565C143.98 29.2099 143.916 31.0427 145.786 30.9356C147.356 30.8455 149.47 28.6334 151.465 25.2892C151.544 25.1585 151.585 25.0086 151.592 24.8563C151.853 18.1619 155.985 12.072 162.127 11.7226C166.241 11.4889 168.495 14.5757 168.657 17.6131C168.964 23.4116 163.194 27.1179 157.601 26.7748C156.95 26.734 156.477 27.4287 156.763 28.0331C157.545 29.6922 159.189 30.6185 161.997 30.4575C164.668 30.3076 167.469 28.0182 169.233 25.9753ZM76.7896 27.6023C75.4625 32.8863 77.0738 34.9547 79.1577 34.8369C82.5788 34.6418 85.8886 28.4146 85.6339 23.6087C85.5217 21.5102 84.2857 20.4169 82.8426 20.4985C80.4391 20.6356 77.8515 23.3858 76.7896 27.6023ZM99.7665 26.2948C98.4397 31.5786 100.051 33.6473 102.135 33.5293H102.133C105.554 33.3343 108.865 27.1071 108.611 22.3012C108.501 20.2026 107.262 19.1094 105.819 19.1908C103.416 19.3281 100.829 22.0783 99.7665 26.2948ZM122.744 24.9871C121.417 30.2711 123.028 32.3397 125.112 32.2218H125.11C128.529 32.0267 131.843 25.7996 131.588 20.9937C131.478 18.895 130.24 17.8018 128.797 17.8833C126.394 18.0204 123.806 20.7707 122.744 24.9871ZM164.288 18.0805C164.267 16.6957 163.411 15.6925 162.022 15.7718H162.02C159.291 15.9283 157.155 18.8629 156.475 22.4233C156.367 22.9893 156.784 23.5166 157.341 23.5036C160.867 23.4159 164.4 21.105 164.288 18.0805ZM36.3268 20.6511C35.9702 9.92233 28.947 2.84208 18.5688 3.21078C14.1128 3.41228 9.01378 5.09071 5.17772 8.09174C4.81693 8.3747 4.7236 8.89342 4.96829 9.28784L6.59604 11.9202C6.87389 12.3703 7.46486 12.4625 7.86921 12.1281C10.7888 9.7187 14.7742 8.13893 18.6082 7.9717C25.7206 7.67802 30.9459 12.201 31.2508 20.9383C31.6324 31.1119 24.7481 42.7494 13.6855 43.3796C13.2999 43.401 12.8976 43.4096 12.4953 43.4096C11.9313 43.4096 11.5146 42.863 11.6555 42.297C13.7892 33.7419 16.2796 24.5674 18.8197 16.0295C18.996 15.4357 18.5481 14.844 17.9489 14.8784L14.714 15.0627C14.3512 15.0841 14.0401 15.3349 13.9344 15.695C11.4938 24.085 9.05113 33.1847 6.85316 41.7226C6.72667 42.2156 6.2228 42.4986 5.75417 42.3398C4.60749 41.952 3.56034 41.5104 2.6687 40.9937C2.24154 40.7451 1.70035 40.921 1.48055 41.3753L0.0912584 44.2606C-0.114024 44.6873 0.037346 45.2102 0.441692 45.4395C3.59143 47.2145 8.37312 48.2283 13.1796 47.9562C28.9969 47.0557 36.7458 32.5436 36.3268 20.6554V20.6511ZM67.4112 7.46914C65.4869 7.57845 63.7803 9.72635 63.9007 11.99C63.9793 13.4819 64.9437 14.4787 66.4407 14.3951C68.365 14.2858 70.1191 12.0242 70.0051 9.86994C69.9265 8.37803 68.8004 7.38983 67.4112 7.46914Z" fill="white"></path> </g> <defs> <clipPath id="clip0_668_2318"> <rect width="172" height="48" fill="white"></rect> </clipPath> </defs> </svg> 